<svg fill="#000000" xmlns="http://www.w3.org/2000/svg" xmlns:xlink="http://www.w3.org/1999/xlink" version="1.0" x="0px" y="0px" viewBox="0 0 100 100" style="enable-background:new 0 0 100 100;" xml:space="preserve"><g><path d="M76.9,33.5L66.5,23.1c-0.4-0.4-0.9-0.6-1.4-0.6s-1,0.2-1.4,0.6l-5.8,5.8c-0.8,0.8-0.8,2,0,2.8l10.4,10.4   c0.4,0.4,0.9,0.6,1.4,0.6s1-0.2,1.4-0.6l5.8-5.8C77.7,35.5,77.7,34.2,76.9,33.5z"></path><path d="M55,34.6c-0.8-0.8-2.1-0.8-2.8,0L24,62.8c-0.3,0.3-0.5,0.8-0.6,1.3l-0.9,11.2c0,0.6,0.2,1.2,0.6,1.6   c0.4,0.4,0.9,0.6,1.4,0.6c0,0,0.1,0,0.1,0l11.2-0.8c0.5,0,0.9-0.2,1.3-0.6l28.3-28.3c0.4-0.4,0.6-0.9,0.6-1.4s-0.2-1-0.6-1.4   L55,34.6z"></path></g></svg>