<svg fill="#000000" xmlns="http://www.w3.org/2000/svg" xmlns:xlink="http://www.w3.org/1999/xlink" version="1.1" x="0px" y="0px" viewBox="0 0 24 24" enable-background="new 0 0 24 24" xml:space="preserve"><path fill-rule="evenodd" clip-rule="evenodd" d="M13.605,15.93L13.605,15.93c-0.001,0.942-0.766,1.707-1.708,1.707  s-1.708-0.765-1.708-1.707h0c-0.009-0.492-0.014-0.788-0.014-0.897c0-1.103,0.183-2.009,0.551-2.724  c0.364-0.71,1.093-1.512,2.19-2.405c1.098-0.888,1.754-1.471,1.968-1.749c0.332-0.437,0.497-0.92,0.497-1.444  c0-0.724-0.292-1.348-0.88-1.863c-0.583-0.52-1.371-0.779-2.363-0.779c-0.957,0-1.754,0.273-2.4,0.815  C9.096,5.431,8.654,6.26,8.413,7.376l0,0C8.305,8.231,7.575,8.892,6.691,8.892c-0.958,0-1.735-0.776-1.735-1.734  c0-0.075,0.004-0.147,0.013-0.219h0c0.1-1.599,0.779-2.951,2.041-4.067C8.272,1.755,9.93,1.2,11.979,1.2  c2.159,0,3.876,0.565,5.151,1.69c1.275,1.125,1.913,2.432,1.913,3.931c0,0.824-0.232,1.612-0.701,2.35  c-0.469,0.737-1.467,1.745-3.002,3.02c-0.792,0.656-1.284,1.189-1.476,1.589C13.673,14.181,13.587,14.896,13.605,15.93L13.605,15.93  z M11.897,18.915c1.073,0,1.942,0.87,1.942,1.942c0,1.073-0.869,1.942-1.942,1.942s-1.942-0.869-1.942-1.942  C9.955,19.785,10.824,18.915,11.897,18.915z"></path></svg>