<svg fill="#000000" xmlns="http://www.w3.org/2000/svg" xmlns:xlink="http://www.w3.org/1999/xlink" version="1.1" x="0px" y="0px" viewBox="0 0 100 100" style="enable-background:new 0 0 100 100;" xml:space="preserve"><g><path d="M74,26H60.2v-3.1c0-2.9-2.4-5.3-5.3-5.3H45c-2.9,0-5.3,2.4-5.3,5.3V26H26c-1.4,0-2.5,1.1-2.5,2.5S24.6,31,26,31h2.2v42.8   c0,4.7,3.8,8.5,8.5,8.5h26.5c4.7,0,8.5-3.8,8.5-8.5V31H74c1.4,0,2.5-1.1,2.5-2.5S75.4,26,74,26z M44.8,22.9c0-0.1,0.1-0.3,0.3-0.3   H55c0.1,0,0.3,0.1,0.3,0.3V26H44.8V22.9z M66.8,73.8c0,1.9-1.6,3.5-3.5,3.5H36.8c-1.9,0-3.5-1.6-3.5-3.5V31h33.5V73.8z"></path><path d="M50,71.7c1.4,0,2.5-1.1,2.5-2.5v-30c0-1.4-1.1-2.5-2.5-2.5c-1.4,0-2.5,1.1-2.5,2.5v30C47.5,70.5,48.6,71.7,50,71.7z"></path><path d="M60,71.7c1.4,0,2.5-1.1,2.5-2.5v-30c0-1.4-1.1-2.5-2.5-2.5c-1.4,0-2.5,1.1-2.5,2.5v30C57.5,70.5,58.6,71.7,60,71.7z"></path><path d="M40,71.7c1.4,0,2.5-1.1,2.5-2.5v-30c0-1.4-1.1-2.5-2.5-2.5c-1.4,0-2.5,1.1-2.5,2.5v30C37.5,70.5,38.6,71.7,40,71.7z"></path></g></svg>